<mxfile host="app.diagrams.net" modified="2021-08-11T03:37:37.202Z" agent="5.0 (Windows NT 10.0; Win64; x64) AppleWebKit/537.36 (KHTML, like Gecko) Chrome/92.0.4515.131 Safari/537.36 Edg/92.0.902.67" etag="OEbEMldnS4XzmdThT91o" version="14.9.4" type="github">
  <diagram id="4EaTjjpht8Hp-_rdf4MM" name="Page-1">
    <mxGraphModel dx="1422" dy="754" grid="1" gridSize="10" guides="1" tooltips="1" connect="1" arrows="1" fold="1" page="1" pageScale="1" pageWidth="850" pageHeight="1100" math="0" shadow="0">
      <root>
        <mxCell id="0" />
        <mxCell id="1" parent="0" />
        <mxCell id="X409921ZTPCvapYcld_P-1" value="&lt;font style=&quot;font-size: 22px&quot;&gt;ณัฐกิตติ์ ฟองสุวรรณ วต. 1/1&lt;br&gt;รหัส นศ. 164404140009&lt;br&gt;&lt;/font&gt;" style="text;html=1;strokeColor=none;fillColor=none;align=center;verticalAlign=middle;whiteSpace=wrap;rounded=0;" vertex="1" parent="1">
          <mxGeometry x="550" y="65" width="260" height="20" as="geometry" />
        </mxCell>
        <mxCell id="X409921ZTPCvapYcld_P-2" value="&lt;h1&gt;Lab 03&lt;/h1&gt;&lt;p&gt;&lt;font style=&quot;font-size: 17px&quot;&gt;ผังงาน โปรเเกรมตรวจสอบอายุผู้เข้าเว็บไซต์&lt;br&gt;&lt;/font&gt;&lt;/p&gt;" style="text;html=1;strokeColor=none;fillColor=none;spacing=5;spacingTop=-20;whiteSpace=wrap;overflow=hidden;rounded=0;" vertex="1" parent="1">
          <mxGeometry x="30" y="30" width="290" height="90" as="geometry" />
        </mxCell>
      </root>
    </mxGraphModel>
  </diagram>
</mxfile>
